<svg version="1.1" viewBox="0.0 0.0 903.5748031496063 903.5748031496063" fill="none" stroke="none" stroke-linecap="square" stroke-miterlimit="10" xmlns:xlink="http://www.w3.org/1999/xlink" xmlns="http://www.w3.org/2000/svg"><clipPath id="p.0"><path d="m0 0l903.5748 0l0 903.5748l-903.5748 0l0 -903.5748z" clip-rule="nonzero"/></clipPath><g clip-path="url(#p.0)"><path fill="#000000" fill-opacity="0.0" d="m0 0l903.5748 0l0 903.5748l-903.5748 0z" fill-rule="evenodd"/><g filter="url(#shadowFilter-p.1)"><use xlink:href="#p.1" transform="matrix(1.0 0.0 0.0 1.0 0.0 2.0)"/></g><defs><filter id="shadowFilter-p.1" filterUnits="userSpaceOnUse"><feGaussianBlur in="SourceAlpha" stdDeviation="2.0" result="blur"/><feComponentTransfer in="blur" color-interpolation-filters="sRGB"><feFuncR type="linear" slope="0" intercept="0.0"/><feFuncG type="linear" slope="0" intercept="0.0"/><feFuncB type="linear" slope="0" intercept="0.0"/><feFuncA type="linear" slope="0.5" intercept="0"/></feComponentTransfer></filter></defs><g id="p.1"><path fill="#efefef" d="m28.84252 451.7874c0 -233.58601 189.35889 -422.9449 422.9449 -422.9449c112.171936 0 219.74963 44.560135 299.0672 123.87769c79.317505 79.31755 123.877686 186.89523 123.877686 299.0672c0 233.586 -189.35889 422.9449 -422.9449 422.9449c-233.58601 0 -422.9449 -189.35889 -422.9449 -422.9449z" fill-rule="evenodd"/></g><g filter="url(#shadowFilter-p.2)"><use xlink:href="#p.2" transform="matrix(1.0 0.0 0.0 1.0 0.0 2.0)"/></g><defs><filter id="shadowFilter-p.2" filterUnits="userSpaceOnUse"><feGaussianBlur in="SourceAlpha" stdDeviation="2.0" result="blur"/><feComponentTransfer in="blur" color-interpolation-filters="sRGB"><feFuncR type="linear" slope="0" intercept="0.0"/><feFuncG type="linear" slope="0" intercept="0.0"/><feFuncB type="linear" slope="0" intercept="0.0"/><feFuncA type="linear" slope="0.5" intercept="0"/></feComponentTransfer></filter></defs><g id="p.2"><path fill="#ffffff" d="m54.339153 451.78714c0 -219.39186 177.9439 -397.24408 397.44882 -397.24408c105.40997 0 206.50262 41.852386 281.03876 116.3501c74.53613 74.49773 116.410095 175.53831 116.410095 280.89398c0 219.39188 -177.94391 397.2441 -397.44885 397.2441c-219.50491 0 -397.44882 -177.85223 -397.44882 -397.2441z" fill-rule="evenodd"/></g><g filter="url(#shadowFilter-p.3)"><use xlink:href="#p.3" transform="matrix(1.0 0.0 0.0 1.0 0.0 2.0)"/></g><defs><filter id="shadowFilter-p.3" filterUnits="userSpaceOnUse"><feGaussianBlur in="SourceAlpha" stdDeviation="2.0" result="blur"/><feComponentTransfer in="blur" color-interpolation-filters="sRGB"><feFuncR type="linear" slope="0" intercept="0.0"/><feFuncG type="linear" slope="0" intercept="0.0"/><feFuncB type="linear" slope="0" intercept="0.0"/><feFuncA type="linear" slope="0.5" intercept="0"/></feComponentTransfer></filter></defs><g id="p.3"><path fill="#ffffff" d="m87.78745 451.78738c0 -200.68376 162.77094 -363.3701 363.55905 -363.3701c96.421875 0 188.89453 38.283524 257.07507 106.428635c68.18054 68.145096 106.48401 160.56972 106.48401 256.94147c0 200.68375 -162.77094 363.3701 -363.55908 363.3701c-200.78812 0 -363.55905 -162.68634 -363.55905 -363.3701z" fill-rule="evenodd"/></g><g filter="url(#shadowFilter-p.4)"><use xlink:href="#p.4" transform="matrix(1.0 0.0 0.0 1.0 0.0 2.0)"/></g><defs><filter id="shadowFilter-p.4" filterUnits="userSpaceOnUse"><feGaussianBlur in="SourceAlpha" stdDeviation="2.0" result="blur"/><feComponentTransfer in="blur" color-interpolation-filters="sRGB"><feFuncR type="linear" slope="0" intercept="0.0"/><feFuncG type="linear" slope="0" intercept="0.0"/><feFuncB type="linear" slope="0" intercept="0.0"/><feFuncA type="linear" slope="0.5" intercept="0"/></feComponentTransfer></filter></defs><g id="p.4"><path fill="#ffffff" d="m122.41732 451.34647c0 -181.57559 147.26657 -328.77167 328.92914 -328.77167c87.2374 0 170.90182 34.638344 232.58798 96.29499c61.68622 61.65663 96.341125 145.28099 96.341125 232.47667c0 181.57553 -147.2666 328.77164 -328.9291 328.77164c-181.66257 0 -328.92914 -147.1961 -328.92914 -328.77164z" fill-rule="evenodd"/></g><g filter="url(#shadowFilter-p.5)"><use xlink:href="#p.5" transform="matrix(1.0 0.0 0.0 1.0 0.0 2.0)"/></g><defs><filter id="shadowFilter-p.5" filterUnits="userSpaceOnUse"><feGaussianBlur in="SourceAlpha" stdDeviation="2.0" result="blur"/><feComponentTransfer in="blur" color-interpolation-filters="sRGB"><feFuncR type="linear" slope="0" intercept="0.0"/><feFuncG type="linear" slope="0" intercept="0.0"/><feFuncB type="linear" slope="0" intercept="0.0"/><feFuncA type="linear" slope="0.5" intercept="0"/></feComponentTransfer></filter></defs><g id="p.5"><defs><linearGradient id="p.6" gradientUnits="userSpaceOnUse" gradientTransform="matrix(23.54827213279228 0.0 0.0 23.54827213279228 0.0 0.0)" spreadMethod="pad" x1="28.446228889514913" y1="30.94054504565135" x2="28.446486638948567" y2="7.392272914269679"><stop offset="0.0" stop-color="#b45f06"/><stop offset="1.0" stop-color="#737373"/></linearGradient></defs><path fill="url(#p.6)" d="m232.85056 175.2798l22.718536 139.42046l14.818878 0l19.6091 -103.25574l19.44101 103.25574l14.118561 0l22.382355 -139.42046l-15.827332 0l-14.650787 100.70656l-18.936798 -100.17432l-13.754364 0l-18.768707 99.64206l-14.958939 -100.1743z" fill-rule="evenodd"/><defs><linearGradient id="p.7" gradientUnits="userSpaceOnUse" gradientTransform="matrix(23.54827213279228 0.0 0.0 23.54827213279228 0.0 0.0)" spreadMethod="pad" x1="28.446228889514913" y1="30.94054504565135" x2="28.446486638948567" y2="7.392272914269679"><stop offset="0.0" stop-color="#b45f06"/><stop offset="1.0" stop-color="#737373"/></linearGradient></defs><path fill="url(#p.7)" d="m389.80975 202.81653l11.709442 62.83304l-23.222778 0l11.513336 -62.83304zm-9.440369 -27.536728l-29.609741 139.42046l18.23645 0l6.7231445 -35.10022l28.377136 0l6.386963 35.10022l18.404541 0l-29.777802 -139.42046zm47.312317 0l0 14.454681l23.586945 0l0 124.965775l19.44101 0l0 -124.965775l22.886627 0l0 -14.454681z" fill-rule="evenodd"/><defs><linearGradient id="p.8" gradientUnits="userSpaceOnUse" gradientTransform="matrix(23.54827213279228 0.0 0.0 23.54827213279228 0.0 0.0)" spreadMethod="pad" x1="28.446228889514913" y1="30.94054504565135" x2="28.446486638948567" y2="7.392272914269679"><stop offset="0.0" stop-color="#b45f06"/><stop offset="1.0" stop-color="#737373"/></linearGradient></defs><path fill="url(#p.8)" d="m541.44354 174.07524c-9.860535 0 -17.517456 1.9235687 -22.970642 5.7706757c-5.453186 3.847107 -9.244293 9.272278 -11.3732605 16.275513c-2.110321 7.00325 -3.1654663 15.201706 -3.1654663 24.595383l0 49.24675c0 8.590637 1.0551453 16.387573 3.1654663 23.390808c2.1289673 7.003235 5.9200745 12.568481 11.3732605 16.69574c5.453186 4.127228 13.110107 6.190857 22.970642 6.190857c9.188293 0 16.303589 -1.802185 21.345886 -5.406494c5.0423584 -3.6230164 8.600037 -8.674713 10.672974 -15.155029c2.072937 -6.480316 3.109436 -13.969116 3.109436 -22.46637l0 -10.308777l-18.432556 0l0 10.308777c0 5.5092163 -0.2894287 10.336761 -0.8684082 14.482697c-0.5602417 4.127228 -1.9888916 7.367401 -4.2859497 9.7204895c-2.297058 2.3344116 -6.088196 3.5016174 -11.373291 3.5016174c-4.463379 0 -8.021057 -0.8590698 -10.672974 -2.577179c-2.6331787 -1.7181396 -4.5287476 -4.6128235 -5.6865845 -8.684021c-1.1392212 -4.071228 -1.7088013 -9.608459 -1.7088013 -16.611694l0 -55.24153c0 -5.733307 0.37347412 -10.747635 1.1204834 -15.0429535c0.7470093 -4.31398 2.3811035 -7.647522 4.9022827 -10.00061c2.539856 -2.3530884 6.5550537 -3.5296326 12.045593 -3.5296326c5.397156 0 9.244263 1.0924988 11.541382 3.2775116c2.297058 2.166336 3.6976929 5.22908 4.2019043 9.188248c0.5229492 3.9591675 0.7843628 8.525284 0.7843628 13.698334l0 9.804535l18.432556 0l0 -11.009094c0 -8.385208 -1.1204834 -15.556519 -3.3615723 -21.513947c-2.2410278 -5.9760895 -5.920044 -10.570221 -11.037109 -13.782364c-5.0983276 -3.2121582 -12.00824 -4.8182373 -20.729614 -4.8182373z" fill-rule="evenodd"/><defs><linearGradient id="p.9" gradientUnits="userSpaceOnUse" gradientTransform="matrix(23.54827213279228 0.0 0.0 23.54827213279228 0.0 0.0)" spreadMethod="pad" x1="28.446228889514913" y1="30.94054504565135" x2="28.446486638948567" y2="7.392272914269679"><stop offset="0.0" stop-color="#b45f06"/><stop offset="1.0" stop-color="#737373"/></linearGradient></defs><path fill="url(#p.9)" d="m595.14886 175.2798l0 139.42046l19.44104 0l0 -65.24217l35.8006 0l0 65.24217l19.469055 0l0 -139.42046l-19.469055 0l0 60.25586l-35.8006 0l0 -60.25586z" fill-rule="evenodd"/><defs><linearGradient id="p.10" gradientUnits="userSpaceOnUse" gradientTransform="matrix(23.54827213279228 0.0 0.0 23.54827213279228 0.0 0.0)" spreadMethod="pad" x1="28.446228889514913" y1="30.94054504565135" x2="28.446486638948567" y2="7.392272914269679"><stop offset="0.0" stop-color="#b45f06"/><stop offset="1.0" stop-color="#737373"/></linearGradient></defs><path fill="url(#p.10)" d="m310.47363 381.4551l0 14.454681l23.586945 0l0 124.96576l19.44101 0l0 -124.96576l22.886597 0l0 -14.454681z" fill-rule="evenodd"/><defs><linearGradient id="p.11" gradientUnits="userSpaceOnUse" gradientTransform="matrix(23.54827213279228 0.0 0.0 23.54827213279228 0.0 0.0)" spreadMethod="pad" x1="28.446228889514913" y1="30.94054504565135" x2="28.446486638948567" y2="7.392272914269679"><stop offset="0.0" stop-color="#b45f06"/><stop offset="1.0" stop-color="#737373"/></linearGradient></defs><path fill="url(#p.11)" d="m389.8196 381.4551l0 139.42044l19.44101 0l0 -65.24216l35.8006 0l0 65.24216l19.469025 0l0 -139.42044l-19.469025 0l0 60.25586l-35.8006 0l0 -60.25586z" fill-rule="evenodd"/><defs><linearGradient id="p.12" gradientUnits="userSpaceOnUse" gradientTransform="matrix(23.54827213279228 0.0 0.0 23.54827213279228 0.0 0.0)" spreadMethod="pad" x1="28.446228889514913" y1="30.94054504565135" x2="28.446486638948567" y2="7.392272914269679"><stop offset="0.0" stop-color="#b45f06"/><stop offset="1.0" stop-color="#737373"/></linearGradient></defs><path fill="url(#p.12)" d="m487.41077 381.4551l0 139.42044l19.104858 0l0 -139.42044z" fill-rule="evenodd"/><defs><linearGradient id="p.13" gradientUnits="userSpaceOnUse" gradientTransform="matrix(23.54827213279228 0.0 0.0 23.54827213279228 0.0 0.0)" spreadMethod="pad" x1="28.446228889514913" y1="30.94054504565135" x2="28.446486638948567" y2="7.392272914269679"><stop offset="0.0" stop-color="#b45f06"/><stop offset="1.0" stop-color="#737373"/></linearGradient></defs><path fill="url(#p.13)" d="m557.9674 380.25055c-10.084717 0 -18.059082 2.8106384 -23.923096 8.431915c-5.845398 5.621277 -8.768066 13.539612 -8.768066 23.754974c0 7.003235 1.0831299 12.885956 3.2495117 17.648163c2.1849976 4.762207 5.574585 9.150909 10.168701 13.166077l23.418884 20.645538c4.3513184 3.9031372 7.9556885 7.7782593 10.812988 11.625366c2.8759766 3.847107 4.314026 8.926788 4.314026 15.239044c0 5.266449 -1.2886353 9.309631 -3.8658447 12.129608c-2.5771484 2.8013 -6.386963 4.2019653 -11.42926 4.2019653c-4.9489746 0 -8.80542 -1.4566956 -11.569397 -4.3700256c-2.7452393 -2.9320374 -4.7248535 -6.6857605 -5.9387207 -11.2612c-1.1952515 -4.5941467 -1.9609375 -9.365662 -2.297058 -14.314636l-17.200012 4.6501465c0.4482422 8.0303955 2.044983 15.089661 4.790222 21.177795c2.763977 6.088135 6.80719 10.850342 12.129639 14.286621c5.3411255 3.4362793 12.036255 5.154358 20.085327 5.154358c6.536377 0 12.297668 -1.3165894 17.283997 -3.949829c4.986328 -2.6331787 8.91748 -6.442993 11.793457 -11.42926c2.8760376 -5.005005 4.314026 -10.943756 4.314026 -17.816254c0 -8.721344 -2.0169678 -16.266144 -6.0508423 -22.63446c-4.0151978 -6.3682556 -8.656006 -11.849457 -13.922424 -16.443604l-23.586914 -20.645538c-3.2121582 -2.876007 -5.5372925 -5.686615 -6.975281 -8.431885c-1.4379883 -2.7639465 -2.1569824 -6.265564 -2.1569824 -10.504852c0 -5.061035 1.3446045 -8.880127 4.0338745 -11.457306c2.7079468 -2.577179 6.4710083 -3.8657837 11.289246 -3.8657837c4.8182373 0 8.51593 1.1765442 11.09314 3.5296326c2.5958862 2.3530884 4.4073486 5.453186 5.4345093 9.300293c1.0271606 3.8284607 1.7181396 8.039734 2.072937 12.63385l16.52771 -4.482086c-0.5789795 -6.0694885 -1.6994629 -11.3732605 -3.3615723 -15.911346c-1.6621094 -4.538086 -3.9031372 -8.29184 -6.7231445 -11.2612c-2.8012695 -2.9880676 -6.3029175 -5.2010803 -10.504822 -6.6390686c-4.1832886 -1.4379883 -9.029541 -2.157013 -14.538757 -2.157013z" fill-rule="evenodd"/><defs><linearGradient id="p.14" gradientUnits="userSpaceOnUse" gradientTransform="matrix(23.54827213279228 0.0 0.0 23.54827213279228 0.0 0.0)" spreadMethod="pad" x1="28.446228889514913" y1="30.94054504565135" x2="28.446486638948567" y2="7.392272914269679"><stop offset="0.0" stop-color="#b45f06"/><stop offset="1.0" stop-color="#737373"/></linearGradient></defs><path fill="url(#p.14)" d="m294.12012 586.42584c-10.084686 0 -18.059052 2.810669 -23.923096 8.431885c-5.8453674 5.621277 -8.768066 13.539612 -8.768066 23.755005c0 7.003235 1.0831604 12.885986 3.2495117 17.648132c2.1849976 4.762207 5.574585 9.150879 10.168701 13.166138l23.418884 20.645508c4.351349 3.9031372 7.9556885 7.7783203 10.812988 11.625366c2.876007 3.847168 4.314026 8.926819 4.314026 15.239075c0 5.2664185 -1.2886047 9.309631 -3.8658142 12.129578c-2.577179 2.8013306 -6.386963 4.2019653 -11.429291 4.2019653c-4.948944 0 -8.80542 -1.456665 -11.569366 -4.370056c-2.7452698 -2.9319458 -4.7248535 -6.68573 -5.938751 -11.261169c-1.195221 -4.594116 -1.960907 -9.365662 -2.297058 -14.314636l-17.199982 4.6501465c0.44821167 8.0303955 2.0449524 15.089661 4.790222 21.177795c2.7639465 6.088196 6.8071594 10.850403 12.129608 14.286621c5.341156 3.4362183 12.036255 5.154358 20.085327 5.154358c6.536377 0 12.297699 -1.3165894 17.284027 -3.949829c4.9862976 -2.6331787 8.91745 -6.442932 11.793457 -11.42926c2.876007 -5.004944 4.3139954 -10.943726 4.3139954 -17.816223c0 -8.7213745 -2.0169373 -16.266235 -6.050812 -22.63446c-4.0151978 -6.368286 -8.656006 -11.849487 -13.922455 -16.443604l-23.586914 -20.645569c-3.2121582 -2.8759766 -5.5372314 -5.6866455 -6.9752502 -8.431885c-1.4380188 -2.763916 -2.157013 -6.265564 -2.157013 -10.504883c0 -5.060974 1.344635 -8.880066 4.0338745 -11.457275c2.7079163 -2.5772095 6.4710083 -3.8657837 11.289246 -3.8657837c4.8182373 0 8.515961 1.1765747 11.09314 3.529663c2.5958557 2.3530884 4.407379 5.453125 5.4345093 9.300293c1.0271606 3.8283691 1.7181396 8.039673 2.0729675 12.633789l16.52768 -4.4820557c-0.578949 -6.069458 -1.6994629 -11.37323 -3.3615723 -15.911316c-1.6621094 -4.538147 -3.9031372 -8.29187 -6.723114 -11.26123c-2.8013 -2.988037 -6.3029175 -5.201111 -10.504883 -6.639099c-4.183258 -1.4379883 -9.0295105 -2.1569824 -14.538727 -2.1569824z" fill-rule="evenodd"/><defs><linearGradient id="p.15" gradientUnits="userSpaceOnUse" gradientTransform="matrix(23.54827213279228 0.0 0.0 23.54827213279228 0.0 0.0)" spreadMethod="pad" x1="28.446228889514913" y1="30.94054504565135" x2="28.446486638948567" y2="7.392272914269679"><stop offset="0.0" stop-color="#b45f06"/><stop offset="1.0" stop-color="#737373"/></linearGradient></defs><path fill="url(#p.15)" d="m375.1928 601.5809c6.5363464 0 11.354584 0.690979 14.454681 2.072937c3.1001282 1.3633423 5.135742 3.8284302 6.106842 7.395447c0.9711304 3.5482788 1.4566956 8.656006 1.4566956 15.323059c0 5.7332764 -0.6910095 10.1779785 -2.0729675 13.3341675c-1.3633118 3.156128 -3.6510315 5.3691406 -6.8631897 6.639099c-3.2121582 1.2512207 -7.6288757 1.876831 -13.250153 1.876831l-8.964142 0l0 -46.64154zm77.78195 13.586243l11.709412 62.83307l-23.222748 0l11.513336 -62.83307zm-106.355225 -27.536682l0 139.42041l19.44104 0l0 -64.87799l15.32309 0c7.582184 0 13.89444 -1.4660034 18.936798 -4.3980103c5.042328 -2.9320068 8.852081 -7.0872803 11.429291 -12.465759c2.5958557 -5.397156 3.8937988 -11.765442 3.8937988 -19.104858c0 -8.161133 -1.148529 -15.108337 -3.4455872 -20.841614c-2.297058 -5.7333374 -5.938751 -10.122009 -10.925079 -13.166077c-4.9862976 -3.0440674 -11.672058 -4.566101 -20.057281 -4.566101zm96.914856 0l-29.609741 139.42041l18.23645 0l6.723114 -35.10022l28.377167 0l6.386963 35.10022l18.404541 0l-29.777832 -139.42041z" fill-rule="evenodd"/><defs><linearGradient id="p.16" gradientUnits="userSpaceOnUse" gradientTransform="matrix(23.54827213279228 0.0 0.0 23.54827213279228 0.0 0.0)" spreadMethod="pad" x1="28.446228889514913" y1="30.94054504565135" x2="28.446486638948567" y2="7.392272914269679"><stop offset="0.0" stop-color="#b45f06"/><stop offset="1.0" stop-color="#737373"/></linearGradient></defs><path fill="url(#p.16)" d="m540.2388 586.42584c-9.860535 0 -17.517456 1.923584 -22.970642 5.770691c-5.453186 3.847107 -9.244293 9.272278 -11.3732605 16.275513c-2.110321 7.003235 -3.1654968 15.20166 -3.1654968 24.595398l0 49.246765c0 8.590576 1.0551758 16.387573 3.1654968 23.390808c2.1289673 7.003235 5.9200745 12.56842 11.3732605 16.695679c5.453186 4.1272583 13.110107 6.190857 22.970642 6.190857c9.188293 0 16.303589 -1.802185 21.345886 -5.406494c5.0423584 -3.6229858 8.600037 -8.674683 10.672974 -15.154968c2.072937 -6.4803467 3.109436 -13.969177 3.109436 -22.46643l0 -10.308716l-18.432556 0l0 10.308716c0 5.5092163 -0.2894287 10.336792 -0.8684082 14.482727c-0.5602417 4.1272583 -1.9888916 7.3673706 -4.2859497 9.720459c-2.297058 2.3344727 -6.088196 3.501648 -11.373291 3.501648c-4.463379 0 -8.021057 -0.8590698 -10.672974 -2.5772095c-2.6331787 -1.7181396 -4.5287476 -4.612854 -5.6866455 -8.684021c-1.1391602 -4.071228 -1.7087402 -9.608398 -1.7087402 -16.611633l0 -55.241577c0 -5.7332764 0.37347412 -10.74762 1.1204834 -15.042908c0.7470093 -4.314026 2.3811035 -7.647583 4.9022827 -10.000671c2.539856 -2.3530884 6.5550537 -3.529602 12.045593 -3.529602c5.397156 0 9.244263 1.0924683 11.541321 3.2775269c2.2971191 2.1663208 3.697754 5.229065 4.2019653 9.188232c0.5229492 3.9591675 0.7843628 8.525269 0.7843628 13.698303l0 9.804565l18.432556 0l0 -11.009094c0 -8.385254 -1.1205444 -15.556519 -3.3615723 -21.513977c-2.2410278 -5.976074 -5.920044 -10.57019 -11.037109 -13.782349c-5.0983276 -3.2121582 -12.00824 -4.8182373 -20.729614 -4.8182373z" fill-rule="evenodd"/><defs><linearGradient id="p.17" gradientUnits="userSpaceOnUse" gradientTransform="matrix(23.54827213279228 0.0 0.0 23.54827213279228 0.0 0.0)" spreadMethod="pad" x1="28.446228889514913" y1="30.94054504565135" x2="28.446486638948567" y2="7.392272914269679"><stop offset="0.0" stop-color="#b45f06"/><stop offset="1.0" stop-color="#737373"/></linearGradient></defs><path fill="url(#p.17)" d="m593.9441 587.63043l0 139.42041l54.401245 0l0 -13.950439l-34.960205 0l0 -51.09558l28.06903 0l0 -13.78241l-28.06903 0l0 -46.13733l34.59607 0l0 -14.454651z" fill-rule="evenodd"/><path stroke="#783f04" stroke-width="1.0" stroke-linejoin="round" stroke-linecap="butt" d="m232.85056 175.2798l22.718536 139.42046l14.818878 0l19.6091 -103.25574l19.44101 103.25574l14.118561 0l22.382355 -139.42046l-15.827332 0l-14.650787 100.70656l-18.936798 -100.17432l-13.754364 0l-18.768707 99.64206l-14.958939 -100.1743z" fill-rule="evenodd"/><path stroke="#783f04" stroke-width="1.0" stroke-linejoin="round" stroke-linecap="butt" d="m389.80975 202.81653l11.709442 62.83304l-23.222778 0l11.513336 -62.83304zm-9.440369 -27.536728l-29.609741 139.42046l18.23645 0l6.7231445 -35.10022l28.377136 0l6.386963 35.10022l18.404541 0l-29.777802 -139.42046zm47.312317 0l0 14.454681l23.586945 0l0 124.965775l19.44101 0l0 -124.965775l22.886627 0l0 -14.454681z" fill-rule="evenodd"/><path stroke="#783f04" stroke-width="1.0" stroke-linejoin="round" stroke-linecap="butt" d="m541.44354 174.07524c-9.860535 0 -17.517456 1.9235687 -22.970642 5.7706757c-5.453186 3.847107 -9.244293 9.272278 -11.3732605 16.275513c-2.110321 7.00325 -3.1654663 15.201706 -3.1654663 24.595383l0 49.24675c0 8.590637 1.0551453 16.387573 3.1654663 23.390808c2.1289673 7.003235 5.9200745 12.568481 11.3732605 16.69574c5.453186 4.127228 13.110107 6.190857 22.970642 6.190857c9.188293 0 16.303589 -1.802185 21.345886 -5.406494c5.0423584 -3.6230164 8.600037 -8.674713 10.672974 -15.155029c2.072937 -6.480316 3.109436 -13.969116 3.109436 -22.46637l0 -10.308777l-18.432556 0l0 10.308777c0 5.5092163 -0.2894287 10.336761 -0.8684082 14.482697c-0.5602417 4.127228 -1.9888916 7.367401 -4.2859497 9.7204895c-2.297058 2.3344116 -6.088196 3.5016174 -11.373291 3.5016174c-4.463379 0 -8.021057 -0.8590698 -10.672974 -2.577179c-2.6331787 -1.7181396 -4.5287476 -4.6128235 -5.6865845 -8.684021c-1.1392212 -4.071228 -1.7088013 -9.608459 -1.7088013 -16.611694l0 -55.24153c0 -5.733307 0.37347412 -10.747635 1.1204834 -15.0429535c0.7470093 -4.31398 2.3811035 -7.647522 4.9022827 -10.00061c2.539856 -2.3530884 6.5550537 -3.5296326 12.045593 -3.5296326c5.397156 0 9.244263 1.0924988 11.541382 3.2775116c2.297058 2.166336 3.6976929 5.22908 4.2019043 9.188248c0.5229492 3.9591675 0.7843628 8.525284 0.7843628 13.698334l0 9.804535l18.432556 0l0 -11.009094c0 -8.385208 -1.1204834 -15.556519 -3.3615723 -21.513947c-2.2410278 -5.9760895 -5.920044 -10.570221 -11.037109 -13.782364c-5.0983276 -3.2121582 -12.00824 -4.8182373 -20.729614 -4.8182373z" fill-rule="evenodd"/><path stroke="#783f04" stroke-width="1.0" stroke-linejoin="round" stroke-linecap="butt" d="m595.14886 175.2798l0 139.42046l19.44104 0l0 -65.24217l35.8006 0l0 65.24217l19.469055 0l0 -139.42046l-19.469055 0l0 60.25586l-35.8006 0l0 -60.25586z" fill-rule="evenodd"/><path stroke="#783f04" stroke-width="1.0" stroke-linejoin="round" stroke-linecap="butt" d="m310.47363 381.4551l0 14.454681l23.586945 0l0 124.96576l19.44101 0l0 -124.96576l22.886597 0l0 -14.454681z" fill-rule="evenodd"/><path stroke="#783f04" stroke-width="1.0" stroke-linejoin="round" stroke-linecap="butt" d="m389.8196 381.4551l0 139.42044l19.44101 0l0 -65.24216l35.8006 0l0 65.24216l19.469025 0l0 -139.42044l-19.469025 0l0 60.25586l-35.8006 0l0 -60.25586z" fill-rule="evenodd"/><path stroke="#783f04" stroke-width="1.0" stroke-linejoin="round" stroke-linecap="butt" d="m487.41077 381.4551l0 139.42044l19.104858 0l0 -139.42044z" fill-rule="evenodd"/><path stroke="#783f04" stroke-width="1.0" stroke-linejoin="round" stroke-linecap="butt" d="m557.9674 380.25055c-10.084717 0 -18.059082 2.8106384 -23.923096 8.431915c-5.845398 5.621277 -8.768066 13.539612 -8.768066 23.754974c0 7.003235 1.0831299 12.885956 3.2495117 17.648163c2.1849976 4.762207 5.574585 9.150909 10.168701 13.166077l23.418884 20.645538c4.3513184 3.9031372 7.9556885 7.7782593 10.812988 11.625366c2.8759766 3.847107 4.314026 8.926788 4.314026 15.239044c0 5.266449 -1.2886353 9.309631 -3.8658447 12.129608c-2.5771484 2.8013 -6.386963 4.2019653 -11.42926 4.2019653c-4.9489746 0 -8.80542 -1.4566956 -11.569397 -4.3700256c-2.7452393 -2.9320374 -4.7248535 -6.6857605 -5.9387207 -11.2612c-1.1952515 -4.5941467 -1.9609375 -9.365662 -2.297058 -14.314636l-17.200012 4.6501465c0.4482422 8.0303955 2.044983 15.089661 4.790222 21.177795c2.763977 6.088135 6.80719 10.850342 12.129639 14.286621c5.3411255 3.4362793 12.036255 5.154358 20.085327 5.154358c6.536377 0 12.297668 -1.3165894 17.283997 -3.949829c4.986328 -2.6331787 8.91748 -6.442993 11.793457 -11.42926c2.8760376 -5.005005 4.314026 -10.943756 4.314026 -17.816254c0 -8.721344 -2.0169678 -16.266144 -6.0508423 -22.63446c-4.0151978 -6.3682556 -8.656006 -11.849457 -13.922424 -16.443604l-23.586914 -20.645538c-3.2121582 -2.876007 -5.5372925 -5.686615 -6.975281 -8.431885c-1.4379883 -2.7639465 -2.1569824 -6.265564 -2.1569824 -10.504852c0 -5.061035 1.3446045 -8.880127 4.0338745 -11.457306c2.7079468 -2.577179 6.4710083 -3.8657837 11.289246 -3.8657837c4.8182373 0 8.51593 1.1765442 11.09314 3.5296326c2.5958862 2.3530884 4.4073486 5.453186 5.4345093 9.300293c1.0271606 3.8284607 1.7181396 8.039734 2.072937 12.63385l16.52771 -4.482086c-0.5789795 -6.0694885 -1.6994629 -11.3732605 -3.3615723 -15.911346c-1.6621094 -4.538086 -3.9031372 -8.29184 -6.7231445 -11.2612c-2.8012695 -2.9880676 -6.3029175 -5.2010803 -10.504822 -6.6390686c-4.1832886 -1.4379883 -9.029541 -2.157013 -14.538757 -2.157013z" fill-rule="evenodd"/><path stroke="#783f04" stroke-width="1.0" stroke-linejoin="round" stroke-linecap="butt" d="m294.12012 586.42584c-10.084686 0 -18.059052 2.810669 -23.923096 8.431885c-5.8453674 5.621277 -8.768066 13.539612 -8.768066 23.755005c0 7.003235 1.0831604 12.885986 3.2495117 17.648132c2.1849976 4.762207 5.574585 9.150879 10.168701 13.166138l23.418884 20.645508c4.351349 3.9031372 7.9556885 7.7783203 10.812988 11.625366c2.876007 3.847168 4.314026 8.926819 4.314026 15.239075c0 5.2664185 -1.2886047 9.309631 -3.8658142 12.129578c-2.577179 2.8013306 -6.386963 4.2019653 -11.429291 4.2019653c-4.948944 0 -8.80542 -1.456665 -11.569366 -4.370056c-2.7452698 -2.9319458 -4.7248535 -6.68573 -5.938751 -11.261169c-1.195221 -4.594116 -1.960907 -9.365662 -2.297058 -14.314636l-17.199982 4.6501465c0.44821167 8.0303955 2.0449524 15.089661 4.790222 21.177795c2.7639465 6.088196 6.8071594 10.850403 12.129608 14.286621c5.341156 3.4362183 12.036255 5.154358 20.085327 5.154358c6.536377 0 12.297699 -1.3165894 17.284027 -3.949829c4.9862976 -2.6331787 8.91745 -6.442932 11.793457 -11.42926c2.876007 -5.004944 4.3139954 -10.943726 4.3139954 -17.816223c0 -8.7213745 -2.0169373 -16.266235 -6.050812 -22.63446c-4.0151978 -6.368286 -8.656006 -11.849487 -13.922455 -16.443604l-23.586914 -20.645569c-3.2121582 -2.8759766 -5.5372314 -5.6866455 -6.9752502 -8.431885c-1.4380188 -2.763916 -2.157013 -6.265564 -2.157013 -10.504883c0 -5.060974 1.344635 -8.880066 4.0338745 -11.457275c2.7079163 -2.5772095 6.4710083 -3.8657837 11.289246 -3.8657837c4.8182373 0 8.515961 1.1765747 11.09314 3.529663c2.5958557 2.3530884 4.407379 5.453125 5.4345093 9.300293c1.0271606 3.8283691 1.7181396 8.039673 2.0729675 12.633789l16.52768 -4.4820557c-0.578949 -6.069458 -1.6994629 -11.37323 -3.3615723 -15.911316c-1.6621094 -4.538147 -3.9031372 -8.29187 -6.723114 -11.26123c-2.8013 -2.988037 -6.3029175 -5.201111 -10.504883 -6.639099c-4.183258 -1.4379883 -9.0295105 -2.1569824 -14.538727 -2.1569824z" fill-rule="evenodd"/><path stroke="#783f04" stroke-width="1.0" stroke-linejoin="round" stroke-linecap="butt" d="m375.1928 601.5809c6.5363464 0 11.354584 0.690979 14.454681 2.072937c3.1001282 1.3633423 5.135742 3.8284302 6.106842 7.395447c0.9711304 3.5482788 1.4566956 8.656006 1.4566956 15.323059c0 5.7332764 -0.6910095 10.1779785 -2.0729675 13.3341675c-1.3633118 3.156128 -3.6510315 5.3691406 -6.8631897 6.639099c-3.2121582 1.2512207 -7.6288757 1.876831 -13.250153 1.876831l-8.964142 0l0 -46.64154zm77.78195 13.586243l11.709412 62.83307l-23.222748 0l11.513336 -62.83307zm-106.355225 -27.536682l0 139.42041l19.44104 0l0 -64.87799l15.32309 0c7.582184 0 13.89444 -1.4660034 18.936798 -4.3980103c5.042328 -2.9320068 8.852081 -7.0872803 11.429291 -12.465759c2.5958557 -5.397156 3.8937988 -11.765442 3.8937988 -19.104858c0 -8.161133 -1.148529 -15.108337 -3.4455872 -20.841614c-2.297058 -5.7333374 -5.938751 -10.122009 -10.925079 -13.166077c-4.9862976 -3.0440674 -11.672058 -4.566101 -20.057281 -4.566101zm96.914856 0l-29.609741 139.42041l18.23645 0l6.723114 -35.10022l28.377167 0l6.386963 35.10022l18.404541 0l-29.777832 -139.42041z" fill-rule="evenodd"/><path stroke="#783f04" stroke-width="1.0" stroke-linejoin="round" stroke-linecap="butt" d="m540.2388 586.42584c-9.860535 0 -17.517456 1.923584 -22.970642 5.770691c-5.453186 3.847107 -9.244293 9.272278 -11.3732605 16.275513c-2.110321 7.003235 -3.1654968 15.20166 -3.1654968 24.595398l0 49.246765c0 8.590576 1.0551758 16.387573 3.1654968 23.390808c2.1289673 7.003235 5.9200745 12.56842 11.3732605 16.695679c5.453186 4.1272583 13.110107 6.190857 22.970642 6.190857c9.188293 0 16.303589 -1.802185 21.345886 -5.406494c5.0423584 -3.6229858 8.600037 -8.674683 10.672974 -15.154968c2.072937 -6.4803467 3.109436 -13.969177 3.109436 -22.46643l0 -10.308716l-18.432556 0l0 10.308716c0 5.5092163 -0.2894287 10.336792 -0.8684082 14.482727c-0.5602417 4.1272583 -1.9888916 7.3673706 -4.2859497 9.720459c-2.297058 2.3344727 -6.088196 3.501648 -11.373291 3.501648c-4.463379 0 -8.021057 -0.8590698 -10.672974 -2.5772095c-2.6331787 -1.7181396 -4.5287476 -4.612854 -5.6866455 -8.684021c-1.1391602 -4.071228 -1.7087402 -9.608398 -1.7087402 -16.611633l0 -55.241577c0 -5.7332764 0.37347412 -10.74762 1.1204834 -15.042908c0.7470093 -4.314026 2.3811035 -7.647583 4.9022827 -10.000671c2.539856 -2.3530884 6.5550537 -3.529602 12.045593 -3.529602c5.397156 0 9.244263 1.0924683 11.541321 3.2775269c2.2971191 2.1663208 3.697754 5.229065 4.2019653 9.188232c0.5229492 3.9591675 0.7843628 8.525269 0.7843628 13.698303l0 9.804565l18.432556 0l0 -11.009094c0 -8.385254 -1.1205444 -15.556519 -3.3615723 -21.513977c-2.2410278 -5.976074 -5.920044 -10.57019 -11.037109 -13.782349c-5.0983276 -3.2121582 -12.00824 -4.8182373 -20.729614 -4.8182373z" fill-rule="evenodd"/><path stroke="#783f04" stroke-width="1.0" stroke-linejoin="round" stroke-linecap="butt" d="m593.9441 587.63043l0 139.42041l54.401245 0l0 -13.950439l-34.960205 0l0 -51.09558l28.06903 0l0 -13.78241l-28.06903 0l0 -46.13733l34.59607 0l0 -14.454651z" fill-rule="evenodd"/></g></g></svg>